<?xml version="1.0" encoding="UTF-8"?><svg version="1.1" id="Layer_1" xmlns="http://www.w3.org/2000/svg" xmlns:xlink="http://www.w3.org/1999/xlink" x="0px" y="0px" viewBox="0 0 1000 1000" enable-background="new 0 0 1000 1000" xml:space="preserve" width="1000px" height="1000px">
<g>
	<path fill="#579AA3" d="M504,282.594h-6V224.34c0-14.888-12.112-27-27-27H308c-18.196,0-33-14.804-33-33s14.804-33,33-33h286.362
		c14.888,0,27-12.112,27-27s-12.112-27-27-27H531c-18.196,0-33-14.804-33-33V0h6v44.34c0,14.888,12.112,27,27,27h63.362
		c18.196,0,33,14.804,33,33s-14.804,33-33,33H308c-14.888,0-27,12.112-27,27s12.112,27,27,27h163c18.196,0,33,14.804,33,33V282.594z
		"/>
</g>
<path fill="#579AA3" d="M489.166,287.427h21.667c1.565,0,2.833,1.268,2.833,2.833v2.501c0,1.565-1.268,2.833-2.833,2.833h-21.667
	c-1.565,0-2.833-1.268-2.833-2.833v-2.501C486.333,288.695,487.601,287.427,489.166,287.427z"/>
<path fill="#579AA3" d="M489.583,274.594h20.833c1.795,0,3.25,1.455,3.25,3.25v1.667c0,1.795-1.455,3.25-3.25,3.25h-20.833
	c-1.795,0-3.25-1.455-3.25-3.25v-1.667C486.333,276.049,487.788,274.594,489.583,274.594z"/>
<path fill="#579AA3" d="M490.083,281.375h19.833c1.243,0,2.25,1.007,2.25,2.25v2.938c0,1.243-1.007,2.25-2.25,2.25h-19.833
	c-1.243,0-2.25-1.007-2.25-2.25v-2.938C487.833,282.382,488.84,281.375,490.083,281.375z"/>
<g>
	<path fill="#2F3140" d="M496,274.594h-8V216.34c0-14.336-11.664-26-26-26H299c-18.748,0-34-15.252-34-34s15.252-34,34-34h286.362
		c14.337,0,26-11.664,26-26s-11.663-26-26-26H522c-18.748,0-34-15.252-34-34V0h8v36.34c0,14.336,11.663,26,26,26h63.362
		c18.748,0,34,15.252,34,34s-15.252,34-34,34H299c-14.336,0-26,11.664-26,26s11.664,26,26,26h163c18.748,0,34,15.252,34,34V274.594z
		"/>
</g>
<path fill="#2F3140" d="M481.166,287.427h21.667c1.565,0,2.833,1.268,2.833,2.833v2.501c0,1.565-1.268,2.833-2.833,2.833h-21.667
	c-1.565,0-2.833-1.268-2.833-2.833v-2.501C478.333,288.695,479.601,287.427,481.166,287.427z"/>
<path fill="#2F3140" d="M481.583,274.594h20.833c1.795,0,3.25,1.455,3.25,3.25v1.667c0,1.795-1.455,3.25-3.25,3.25h-20.833
	c-1.795,0-3.25-1.455-3.25-3.25v-1.667C478.333,276.049,479.788,274.594,481.583,274.594z"/>
<path fill="#2F3140" d="M482.083,281.875h19.833c1.243,0,2.25,1.007,2.25,2.25v1.938c0,1.243-1.007,2.25-2.25,2.25h-19.833
	c-1.243,0-2.25-1.007-2.25-2.25v-1.938C479.833,282.882,480.84,281.875,482.083,281.875z"/>
<path fill="#579AA3" stroke="#579AA3" stroke-width="6" stroke-miterlimit="10" d="M599.756,360.052
	c-1.5-3.457-3.487-6.682-5.9-9.577c-0.158-0.413-0.318-0.832-0.473-1.228c-5.641-14.428-21.839-23.355-21.839-23.355
	c-13.986-8.282-29.123-14.442-44.917-18.28c-3.215-0.804-6.473,1.15-7.277,4.365c-0.12,0.478-0.18,0.969-0.179,1.461v17.823h-36
	v-17.823c0.003-3.314-2.681-6.002-5.995-6.005c-0.493,0-0.983,0.06-1.461,0.179c-15.794,3.838-30.931,9.998-44.917,18.28
	c0,0-16.2,8.927-21.839,23.355c-5.074,12.975-11.988,35.031-18.3,61.354l-9.337,3.033c-5.255,22.595-9.296,45.454-12.107,68.481
	l8.71-2.689c-0.877,6.95-1.62,13.923-2.194,20.861l-8.514,2.237c-2.271,29.818-1.484,58.974,4.64,83.115l9.155,1.368
	c0.092,0.321,0.178,0.65,0.273,0.969c31.679,75.92,49.71,120.757,63.358,129.993c13.518,9.148,40.827,11.333,56.53,10.65
	c15.537,0.676,42.427-0.837,56.088-9.743l0,0c1.019-0.614,2.003-1.287,2.945-2.014c14.662-9.192,31.887-45.421,62-112.352
	l6.048-13.437l0.093-0.293C650.993,520.074,615.315,396.915,599.756,360.052z"/>
<path fill="#7C7C94" d="M384,480.344h-11l-14.956,3.93c-2.271,29.818-1.484,58.974,4.64,83.115l29.816,4.455L384,480.344z"/>
<g>
	<path fill="#2F3140" d="M392.5,573.344c-0.074,0-0.148-0.006-0.222-0.017l-29.816-4.455c-0.598-0.089-1.083-0.528-1.232-1.114
		c-5.639-22.228-7.214-50.354-4.682-83.598c0.048-0.638,0.496-1.174,1.114-1.337l14.956-3.93c0.125-0.033,0.252-0.049,0.381-0.049
		h11c0.775,0,1.422,0.59,1.494,1.361l8.5,91.5c0.042,0.459-0.128,0.912-0.463,1.229C393.25,573.199,392.88,573.344,392.5,573.344z
		 M363.896,566.053l26.933,4.024l-8.197-88.233h-9.439l-13.734,3.609C357.102,517.427,358.594,544.531,363.896,566.053z"/>
</g>
<path fill="#7C7C94" d="M374.688,459.344l12.979-69l-15.518,5.04c-5.255,22.595-9.296,45.454-12.107,68.481L374.688,459.344z"/>
<path fill="#6C6D81" d="M387,480.344h-11l-14.956,3.93c-2.271,29.818-1.484,58.974,4.64,83.115l29.816,4.455L387,480.344z"/>
<path fill="#6C6D81" d="M377.688,459.344l12.979-69l-15.518,5.04c-5.255,22.595-9.296,45.454-12.107,68.481L377.688,459.344z"/>
<g>
	<path fill="#2F3140" d="M360.042,465.365c-0.347,0-0.689-0.121-0.962-0.349c-0.39-0.326-0.588-0.828-0.526-1.333
		c2.806-22.988,6.889-46.082,12.135-68.64c0.119-0.512,0.498-0.924,0.998-1.087l15.518-5.04c0.503-0.163,1.057-0.049,1.454,0.3
		c0.397,0.35,0.582,0.883,0.483,1.404l-12.979,69c-0.103,0.547-0.5,0.992-1.032,1.156l-14.646,4.521
		C360.339,465.343,360.19,465.365,360.042,465.365z M373.418,396.548c-4.955,21.439-8.856,43.359-11.603,65.199l11.565-3.57
		l12.345-65.626L373.418,396.548z M374.688,459.344h0.01H374.688z"/>
</g>
<path fill="#565864" d="M590.59,341.8c-6.331-14.994-23.345-24.17-25.068-25.069c-5.643-3.129-11.465-5.926-17.434-8.376v392.894
	c1.25-0.624,2.452-1.286,3.585-2c14.663-9.193,31.247-46.062,61.355-112.993l6.048-13.437l0.093-0.292
	C641.827,501.825,606.149,378.665,590.59,341.8z"/>
<g>
	<path fill="#2F3140" d="M548.088,702.749c-0.274,0-0.548-0.075-0.789-0.225c-0.442-0.273-0.711-0.756-0.711-1.275V308.355
		c0-0.5,0.249-0.967,0.665-1.246c0.414-0.279,0.94-0.332,1.404-0.142c6,2.462,11.918,5.306,17.593,8.452
		c1.917,1,19.207,10.37,25.722,25.797l0,0c15.617,37.002,51.412,160.666,28.626,231.769l-0.092,0.288
		c-0.018,0.055-0.038,0.109-0.062,0.161l-6.048,13.437c-30.23,67.203-46.88,104.215-61.927,113.648
		c-1.12,0.706-2.335,1.385-3.712,2.071C548.547,702.696,548.317,702.749,548.088,702.749z M549.588,310.609v388.142
		c0.445-0.255,0.873-0.511,1.285-0.771c14.28-8.954,30.797-45.671,60.781-112.326l6.085-13.581
		c22.529-70.299-13.029-192.962-28.531-229.69l0,0c-6.106-14.461-22.527-23.356-24.38-24.322
		C559.881,315.318,554.771,312.82,549.588,310.609z"/>
</g>
<path fill="#51566A" d="M584.212,331c-5.641-14.428-21.839-23.355-21.839-23.355c-13.986-8.282-29.123-14.442-44.917-18.28
	c-3.215-0.804-6.473,1.15-7.277,4.365c-0.119,0.477-0.18,0.967-0.179,1.458v17.823h-36v-17.823c0.003-3.314-2.681-6.002-5.995-6.005
	c-0.493,0-0.983,0.06-1.461,0.179c-15.794,3.838-30.931,9.998-44.917,18.28c0,0-16.2,8.927-21.839,23.355
	c-15.687,40.116-48.977,166.968-27.676,238.729c31.679,75.92,49.71,120.757,63.358,129.993c13.518,9.148,40.827,11.333,56.53,10.65
	c15.7,0.683,43.012-1.5,56.53-10.65c13.648-9.236,31.679-54.073,63.358-129.993C633.189,497.965,599.9,371.113,584.212,331z"/>
<path fill="#6C6D81" d="M579.3,390.344c0.038-25.114-2.107-50.184-6.413-74.926c-3.219-2.958-6.744-5.565-10.516-7.776
	c-13.986-8.282-29.123-14.442-44.917-18.28c-3.215-0.803-6.472,1.152-7.275,4.367c-0.119,0.477-0.179,0.967-0.179,1.459v17.823h-36
	v-17.823c0.003-3.314-2.681-6.002-5.995-6.005c-0.493,0-0.983,0.06-1.461,0.179c-15.794,3.838-30.931,9.998-44.917,18.28
	c0,0-16.2,8.927-21.839,23.355c-15.687,40.116-48.977,166.968-27.676,238.729c9.328,22.356,17.465,41.993,24.663,58.843
	c13.376,7.563,27.618,11.655,42.4,11.655C516.564,640.224,579.3,528.349,579.3,390.344z"/>
<g>
	<path fill="#2F3140" d="M497.229,713.475c-1.919,0-3.675-0.037-5.229-0.103c-13.661,0.575-43.213-1.02-58.211-11.169
		c-13.539-9.162-29.571-47.635-58.674-117.479l-5.771-13.844c-0.041-0.099-0.077-0.199-0.107-0.302
		c-21.848-73.604,12.701-202.17,27.758-240.675c5.965-15.263,22.485-24.504,23.185-24.89c14.173-8.394,29.561-14.657,45.656-18.568
		c0.697-0.174,1.431-0.264,2.164-0.264c0.003,0,0.006,0,0.009,0c4.962,0.004,8.996,4.045,8.992,9.008v14.82h30v-14.823
		c0-0.741,0.091-1.478,0.271-2.191c0.582-2.328,2.038-4.293,4.101-5.529c2.06-1.236,4.482-1.598,6.812-1.013
		c16.078,3.907,31.466,10.169,45.718,18.608c0.62,0.34,17.138,9.581,23.104,24.844v0c15.059,38.501,49.609,167.061,27.758,240.672
		c-0.03,0.103-0.066,0.203-0.107,0.302l-5.77,13.839c-29.104,69.847-45.136,108.321-58.675,117.483
		C536.921,711.199,512.19,713.475,497.229,713.475z M492,707.369c0.043,0,0.087,0.001,0.13,0.003
		c15.009,0.651,41.97-1.508,54.718-10.138c12.054-8.157,28.783-48.306,56.5-114.822l5.708-13.692
		c21.308-72.132-12.792-198.666-27.639-236.627v0c-5.166-13.214-20.343-21.737-20.495-21.821
		c-13.819-8.182-28.655-14.219-44.175-17.991c-0.799-0.199-1.604-0.079-2.291,0.333s-1.173,1.067-1.367,1.844
		c-0.06,0.239-0.09,0.483-0.09,0.731v17.823c0,1.657-1.343,3-3,3h-36c-1.657,0-3-1.343-3-3v-17.823
		c0.001-1.657-1.343-3.004-2.997-3.005c-0.001,0-0.002,0-0.003,0c-0.245,0-0.49,0.03-0.73,0.09
		c-15.536,3.775-30.372,9.813-44.114,17.951c-0.23,0.129-15.409,8.652-20.573,21.865c-14.846,37.965-48.943,164.507-27.64,236.631
		l5.71,13.697c27.716,66.514,44.445,106.661,56.499,114.817c12.75,8.628,39.709,10.784,54.718,10.138
		C491.913,707.37,491.957,707.369,492,707.369z M611.888,569.726h0.01H611.888z"/>
</g>
<g>
	<path fill="#2F3140" d="M374.293,471.366c-0.384,0-0.769-0.025-1.155-0.074c-4.885-0.629-8.348-5.116-7.719-10.002
		c6.946-55.549,22.485-109.006,31.235-131.383c5.865-15.002,22.069-24.183,23.313-24.87c14.314-8.5,29.78-14.791,45.967-18.696
		c0.689-0.17,1.416-0.299,2.141-0.258c2.386,0.002,4.628,0.933,6.313,2.621c1.686,1.688,2.613,3.933,2.611,6.319v12.056
		c0,1.617,1.315,2.932,2.932,2.932h6.136c4.925,0,8.932,4.006,8.932,8.931v96.932c0.006,3.975-2.663,7.511-6.492,8.595
		c-12.743,3.603-44.964,13.208-68.912,24.587c-11.713,5.565-28.804,14.622-41.078,21.239
		C377.206,471.003,375.764,471.366,374.293,471.366z M468.067,292.083c-0.237,0-0.475,0.029-0.708,0.087
		c-15.637,3.772-30.559,9.844-44.37,18.051c-0.032,0.019-0.064,0.037-0.096,0.055c-0.152,0.083-15.487,8.606-20.651,21.816
		c-8.64,22.096-23.992,74.939-30.87,129.953c-0.208,1.616,0.929,3.089,2.533,3.296c0.614,0.08,1.223-0.035,1.767-0.327
		c12.335-6.65,29.522-15.757,41.35-21.376c24.359-11.575,56.965-21.298,69.853-24.941c1.252-0.355,2.127-1.514,2.125-2.817v-96.937
		c0-1.616-1.315-2.931-2.931-2.931h-6.137c-4.925,0-8.932-4.007-8.932-8.932V295.02c0.001-1.619-1.313-2.936-2.93-2.937
		C468.069,292.083,468.068,292.083,468.067,292.083z"/>
</g>
<g>
	<path fill="#2F3140" d="M609.42,471.36c-1.461,0-2.907-0.362-4.229-1.076c-17.97-9.706-31.756-16.849-40.978-21.231
		c-29.567-14.047-72.56-25.655-72.99-25.771c-1.311-0.352-2.223-1.54-2.223-2.897V313.011c0-1.657,1.343-3,3-3h15v-14.823
		c0-0.741,0.091-1.478,0.271-2.191c0.582-2.328,2.038-4.293,4.1-5.529c2.062-1.238,4.484-1.597,6.813-1.013
		c16.078,3.907,31.467,10.169,45.718,18.608c0.62,0.34,17.138,9.581,23.104,24.844c8.772,22.429,24.343,75.928,31.286,131.385
		c0.238,1.856-0.106,3.717-0.999,5.372c-1.133,2.1-3.016,3.633-5.302,4.316C611.145,471.234,610.279,471.36,609.42,471.36z
		 M495,418.101c9.279,2.595,45.623,13.103,71.787,25.533c9.315,4.426,23.194,11.617,41.254,21.371
		c0.687,0.372,1.48,0.453,2.23,0.228c0.751-0.224,1.369-0.728,1.74-1.417c0.294-0.543,0.407-1.155,0.328-1.769
		c-6.876-54.921-22.26-107.806-30.922-129.955v0c-5.166-13.214-20.343-21.737-20.495-21.821
		c-13.819-8.182-28.655-14.219-44.175-17.991c-0.799-0.199-1.604-0.079-2.291,0.333s-1.173,1.067-1.367,1.844
		c-0.06,0.239-0.09,0.483-0.09,0.731v17.823c0,1.657-1.343,3-3,3h-15V418.101z"/>
</g>
<path fill="#7C7C94" d="M483.667,296.344h16.667c5.339,0.001,9.666,4.328,9.666,9.667v210c0,9.941-8.059,18-18,18l0,0
	c-9.941,0-18-8.059-18-18v-210C474,300.672,478.328,296.344,483.667,296.344z"/>
<path fill="#9093A2" d="M510,352.344v-46.333c0-5.339-4.328-9.667-9.667-9.667h-16.666c-5.339,0-9.667,4.328-9.667,9.667V504.8
	L510,352.344z"/>
<path fill="#3C4155" d="M499.854,468.594v-28.271c-0.049-4.338-3.606-7.814-7.944-7.765c-4.268,0.049-7.717,3.497-7.765,7.765
	v28.271H499.854z"/>
<path fill="#3C4155" d="M499.854,476.594v28.27c0.049,4.338-3.427,7.895-7.765,7.944s-7.894-3.427-7.944-7.765
	c-0.001-0.06-0.001-0.119,0-0.179v-28.27H499.854z"/>
<g>
	<path fill="#2F3140" d="M492,537.011c-11.58,0-21-9.421-21-21V306.094c0-7.03,5.72-12.75,12.75-12.75h16.5
		c7.03,0,12.75,5.72,12.75,12.75v209.917C513,527.59,503.579,537.011,492,537.011z M483.75,299.344c-3.722,0-6.75,3.028-6.75,6.75
		v209.917c0,8.271,6.729,15,15,15s15-6.729,15-15V306.094c0-3.722-3.028-6.75-6.75-6.75H483.75z"/>
</g>
<path fill="#3B4254" d="M488.77,344.344h6.459c3.717,0,6.73,3.013,6.73,6.73v44.485c0,3.717-3.013,6.73-6.73,6.73h-6.459
	c-3.717,0-6.73-3.013-6.73-6.73v-44.485C482.04,347.357,485.053,344.344,488.77,344.344z"/>
<g>
	<path fill="#C06D4F" d="M500.909,397.469h-17.818c-0.552,0-1-0.448-1-1s0.448-1,1-1h17.818c0.553,0,1,0.448,1,1
		S501.462,397.469,500.909,397.469z"/>
</g>
<g>
	<path fill="#C06D4F" d="M500.909,391.469h-17.818c-0.552,0-1-0.448-1-1s0.448-1,1-1h17.818c0.553,0,1,0.448,1,1
		S501.462,391.469,500.909,391.469z"/>
</g>
<g>
	<path fill="#C06D4F" d="M500.909,385.469h-17.818c-0.552,0-1-0.448-1-1s0.448-1,1-1h17.818c0.553,0,1,0.448,1,1
		S501.462,385.469,500.909,385.469z"/>
</g>
<g>
	<path fill="#C06D4F" d="M500.909,379.469h-17.818c-0.552,0-1-0.448-1-1s0.448-1,1-1h17.818c0.553,0,1,0.448,1,1
		S501.462,379.469,500.909,379.469z"/>
</g>
<g>
	<path fill="#C06D4F" d="M500.909,373.469h-17.818c-0.552,0-1-0.448-1-1s0.448-1,1-1h17.818c0.553,0,1,0.448,1,1
		S501.462,373.469,500.909,373.469z"/>
</g>
<g>
	<path fill="#C06D4F" d="M500.909,367.469h-17.818c-0.552,0-1-0.448-1-1s0.448-1,1-1h17.818c0.553,0,1,0.448,1,1
		S501.462,367.469,500.909,367.469z"/>
</g>
<g>
	<path fill="#C06D4F" d="M500.909,361.469h-17.818c-0.552,0-1-0.448-1-1s0.448-1,1-1h17.818c0.553,0,1,0.448,1,1
		S501.462,361.469,500.909,361.469z"/>
</g>
<g>
	<path fill="#C06D4F" d="M500.909,355.469h-17.818c-0.552,0-1-0.448-1-1s0.448-1,1-1h17.818c0.553,0,1,0.448,1,1
		S501.462,355.469,500.909,355.469z"/>
</g>
<g>
	<path fill="#C06D4F" d="M500.909,349.469h-17.818c-0.552,0-1-0.448-1-1s0.448-1,1-1h17.818c0.553,0,1,0.448,1,1
		S501.462,349.469,500.909,349.469z"/>
</g>
<g>
	<path fill="#2F3140" d="M495.23,403.789h-6.46c-4.543-0.106-8.343-3.562-8.874-8.039c-1.262-14.903-1.262-29.964-0.005-44.816
		c0.536-4.527,4.335-7.984,8.843-8.089l6.495,0c4.543,0.106,8.343,3.562,8.874,8.04c1.262,14.902,1.262,29.964,0.006,44.816
		c-0.536,4.527-4.336,7.983-8.844,8.089C495.253,403.789,495.242,403.789,495.23,403.789z M495.195,345.843l-6.425,0
		c-2.989,0.07-5.538,2.389-5.894,5.393c-1.238,14.634-1.238,29.525,0.005,44.21c0.351,2.953,2.9,5.272,5.924,5.343l6.406,0
		c3.017-0.079,5.558-2.395,5.914-5.393c1.236-14.634,1.236-29.526-0.006-44.21C500.769,348.233,498.219,345.914,495.195,345.843z"/>
</g>
<g>
	<path fill="#2F3140" d="M496.979,403.789h-9.959c-3.573,0-6.48-2.907-6.48-6.48v-47.985c0-3.573,2.907-6.48,6.48-6.48h9.959
		c3.573,0,6.48,2.907,6.48,6.48v47.985C503.459,400.882,500.552,403.789,496.979,403.789z M487.02,345.844
		c-1.919,0-3.48,1.562-3.48,3.48v47.985c0,1.919,1.561,3.48,3.48,3.48h9.959c1.919,0,3.48-1.561,3.48-3.48v-47.985
		c0-1.919-1.561-3.48-3.48-3.48H487.02z"/>
</g>
<g>
	<path fill="#2F3140" d="M499.854,470.094h-15.709c-0.829,0-1.5-0.671-1.5-1.5v-28.271c0.057-5.059,4.206-9.208,9.248-9.266
		c0.036,0,0.073,0,0.109,0c2.458,0,4.775,0.944,6.537,2.665c1.787,1.747,2.786,4.085,2.814,6.584v28.288
		C501.354,469.422,500.683,470.094,499.854,470.094z M485.645,467.094h12.709v-26.771c-0.019-1.681-0.698-3.269-1.912-4.456
		c-1.214-1.187-2.803-1.817-4.515-1.81c-3.425,0.039-6.244,2.857-6.282,6.283V467.094z"/>
</g>
<g>
	<path fill="#2F3140" d="M491.996,514.309c-2.458,0-4.775-0.944-6.535-2.665c-1.787-1.747-2.787-4.085-2.815-6.584v-28.466
		c0-0.829,0.671-1.5,1.5-1.5h15.709c0.829,0,1.5,0.671,1.5,1.5v28.271c0.027,2.481-0.918,4.842-2.665,6.629
		c-1.747,1.787-4.085,2.786-6.583,2.814C492.069,514.308,492.032,514.309,491.996,514.309z M485.645,478.094v26.937
		c0.019,1.693,0.698,3.281,1.912,4.468s2.793,1.812,4.515,1.81c1.697-0.019,3.286-0.698,4.472-1.912s1.83-2.816,1.81-4.515v-26.787
		H485.645z"/>
</g>
</svg>